<svg width="295" height="42" viewBox="0 0 295 42" fill="none" xmlns="http://www.w3.org/2000/svg">
<path d="M293.079 41.32C292.058 41.32 291.758 41.1999 291.157 40.5392L268.155 15.9755C267.735 15.5551 267.494 15.3749 267.314 15.3749C267.074 15.3749 266.954 15.7352 266.954 16.4559V39.5183C266.954 41.0197 266.654 41.32 265.152 41.32H262.149C260.648 41.32 260.347 41.0197 260.347 39.5183V1.74167C260.347 0.540512 260.588 0.360336 261.789 0.360336C262.99 0.360336 263.41 0.540512 264.191 1.38133L286.232 25.2244C286.653 25.6448 286.893 25.825 287.073 25.825C287.314 25.825 287.434 25.4646 287.434 24.7439V2.16208C287.434 0.660627 287.734 0.360336 289.235 0.360336H292.298C293.8 0.360336 294.1 0.660627 294.1 2.16208V40.239C294.1 41.1398 293.92 41.32 293.079 41.32Z" fill="#252525"/>
<path d="M229.6 41.6804C217.048 41.6804 209.901 31.8909 209.901 21.1405C209.901 8.34808 218.49 0 230.561 0C243.174 0 250.32 9.60931 250.32 20.2997C250.32 33.9329 240.711 41.6804 229.6 41.6804ZM230.321 6.72651C222.093 6.72651 216.868 12.7924 216.868 21.2005C216.868 29.0081 221.493 35.3142 229.781 35.3142C237.228 35.3142 243.294 29.8489 243.294 20.7201C243.294 12.9726 238.489 6.72651 230.321 6.72651Z" fill="#252525"/>
<path d="M176.746 41.32H173.683C172.182 41.32 171.881 41.0197 171.881 39.5183V2.16208C171.881 0.660627 172.182 0.360336 173.683 0.360336H185.995C193.442 0.360336 199.148 3.0029 199.148 11.6513C199.148 16.9964 196.565 21.0804 192.301 23.4827C191.58 23.9031 191.22 24.2034 191.22 24.5638C191.22 24.8641 191.4 25.2244 191.821 25.7649L202.211 39.8786C202.571 40.3591 202.691 40.5993 202.691 40.8395C202.691 41.2599 202.331 41.32 201.49 41.32H197.106C195.604 41.32 195.124 41.0798 194.223 39.8786L184.914 27.1463C184.013 25.9451 183.533 25.7049 182.031 25.7049H180.349C178.848 25.7049 178.548 26.0052 178.548 27.5066V39.5183C178.548 41.0197 178.247 41.32 176.746 41.32ZM192.301 12.4921C192.301 7.4472 189.118 6.54633 185.454 6.54633H180.349C178.848 6.54633 178.548 6.84662 178.548 8.34807V17.9574C178.548 19.4588 178.848 19.7591 180.349 19.7591H183.953C188.337 19.7591 192.301 18.1976 192.301 12.4921Z" fill="#252525"/>
<path d="M158.034 29.0081C158.034 37.5964 150.887 41.6803 140.677 41.6803C130.407 41.6803 124.461 37.5363 124.461 29.1282V2.16208C124.461 0.660627 124.761 0.360336 126.263 0.360336H129.446C130.947 0.360336 131.248 0.660627 131.248 2.16208V27.927C131.248 33.1521 134.851 35.2541 140.977 35.2541C147.103 35.2541 151.367 33.2122 151.367 27.867V2.16208C151.367 0.660627 151.667 0.360336 153.169 0.360336H156.232C157.733 0.360336 158.034 0.660627 158.034 2.16208V29.0081Z" fill="#252525"/>
<path d="M112.497 41.32H108.293C106.731 41.32 106.311 40.9597 105.53 39.7585L94.8999 22.8821C94.4795 22.2215 94.1792 21.9212 93.8789 21.9212C93.5185 21.9212 93.2182 22.1614 92.7378 22.702L89.6748 25.9451C88.7139 26.9661 88.4737 27.5667 88.4737 29.0681V39.5183C88.4737 41.0197 88.1734 41.32 86.6719 41.32H83.5489C82.0474 41.32 81.7471 41.0197 81.7471 39.5183V2.16208C81.7471 0.660627 82.0474 0.360336 83.5489 0.360336H86.6719C88.1734 0.360336 88.4737 0.660627 88.4737 2.16208V16.6361C88.4737 17.3568 88.5938 17.7171 88.834 17.7171C89.0142 17.7171 89.2544 17.537 89.6748 17.1166L103.849 1.68162C104.87 0.600569 105.35 0.360336 106.851 0.360336H111.596C112.257 0.360336 112.617 0.540512 112.617 0.960917C112.617 1.14109 112.497 1.38133 112.197 1.68162L99.8246 15.0145C99.2841 15.6151 98.9838 16.0355 98.9838 16.4559C98.9838 16.8763 99.2241 17.2367 99.5844 17.8373L113.338 39.7585C113.638 40.239 113.818 40.5392 113.818 40.7795C113.818 41.2599 113.398 41.32 112.497 41.32Z" fill="#252525"/>
<path d="M67.8995 29.0081C67.8995 37.5964 60.7526 41.6803 50.5427 41.6803C40.2728 41.6803 34.327 37.5363 34.327 29.1282V2.16208C34.327 0.660627 34.6273 0.360336 36.1287 0.360336H39.3118C40.8133 0.360336 41.1136 0.660627 41.1136 2.16208V27.927C41.1136 33.1521 44.7171 35.2541 50.843 35.2541C56.9689 35.2541 61.233 33.2122 61.233 27.867V2.16208C61.233 0.660627 61.5333 0.360336 63.0348 0.360336H66.0978C67.5992 0.360336 67.8995 0.660627 67.8995 2.16208V29.0081Z" fill="#252525"/>
<path d="M4.86471 41.32H1.80174C0.300291 41.32 0 41.0197 0 39.5183V2.16208C0 0.660627 0.300291 0.360336 1.80174 0.360336H20.5399C22.0413 0.360336 22.3416 0.660627 22.3416 2.16208V4.92476C22.3416 6.42621 22.0413 6.7265 20.5399 6.7265H8.4682C6.96675 6.7265 6.66645 7.02679 6.66645 8.52825V14.8944C6.66645 16.3959 6.96675 16.6962 8.4682 16.6962H19.2787C20.7801 16.6962 21.0804 16.9964 21.0804 18.4979V20.9603C21.0804 22.4617 20.7801 22.762 19.2787 22.762H8.4682C6.96675 22.762 6.66645 23.0623 6.66645 24.5638V39.5183C6.66645 41.0197 6.36616 41.32 4.86471 41.32Z" fill="#252525"/>
</svg>
